<?xml version="1.0" encoding="UTF-8"?><svg xmlns="http://www.w3.org/2000/svg" viewBox="0 0 194 130"><defs><style>.cls-1{fill:#ea6903;}.cls-2{fill:#9c9b9b;}.cls-3{fill:#5c666f;}</style></defs><g id="PDF_-gray_frames"><path class="cls-2" d="M193.5,.5V129.5H.5V.5H193.5m.5-.5H0V130H194V0h0Z"/></g><g id="Primary"><g><path class="cls-3" d="M95.37,81.66h-4.34l-1.27-3.14h-6.25l-1.3,3.14h-4.34l6.95-16.87h3.75l.03,.08,6.76,16.8Zm-10.61-6.33h3.84l-1.91-5.11-1.93,5.11Zm16.56,6.7c-1.19,0-2.22-.17-3.15-.51-1.03-.39-1.79-.96-2.07-1.19l-.09-.07,1.69-2.58,.11,.09c.41,.35,.94,.69,1.37,.88,.5,.21,1.17,.34,1.71,.34,.37,0,.92-.07,1.26-.26,.3-.17,.45-.42,.45-.74,0-.3-.14-.49-.46-.64-.28-.12-.88-.19-1.27-.19h-1.5v-2.69h1.17c.34,0,1-.05,1.33-.19,.4-.18,.46-.48,.46-.64,0-.12-.05-.42-.49-.61-.3-.13-.66-.19-1.1-.19-.53,0-.96,.08-1.45,.29-.48,.2-.84,.41-1.19,.7l-.11,.09-1.53-2.62,.1-.06c.46-.29,1.27-.7,1.91-.93,.78-.27,1.69-.41,2.71-.41s2.85,.15,3.93,1.18c.59,.55,.88,1.25,.88,2.13,0,.61-.09,1.33-.72,1.98-.22,.21-.45,.39-.69,.51,.73,.25,1.16,.65,1.25,.73,.55,.51,.8,1.12,.8,1.93,0,.93-.35,1.74-1.03,2.41-.92,.88-2.15,1.23-4.26,1.23Zm12.31,0c-1.85,0-3.19-.53-4.34-1.73-1.12-1.17-1.69-2.6-1.69-4.25,0-1.79,.65-3.46,1.79-4.58,1.02-1,2.46-1.56,4.03-1.56,1.02,0,2.42,.25,3.44,1.4v-1.02h3.91v11.36h-3.91v-1.09c-.77,.97-1.86,1.47-3.24,1.47Zm.71-8.78c-.72,0-1.44,.28-1.92,.76-.37,.36-.8,.99-.8,1.93s.4,1.56,.73,1.91c.51,.52,1.28,.83,2.07,.83,.68,0,1.34-.27,1.82-.74,.39-.36,.85-1,.85-2.01,0-.77-.29-1.48-.8-1.95-.58-.55-1.39-.74-1.95-.74Zm14.8,8.4h-3.91v-8.23h-3.05v-3.14h10.02v3.14h-3.05v8.23Zm11.02,0h-3.91v-8.23h-3.05v-3.14h10.02v3.14h-3.05v8.23Zm19.41,0h-3.86v-11.36h3.86v11.36Zm-9.11,0h-6.18v-11.36h3.91v3.81h2.4c1.79,0,2.75,.68,3.16,1.08,.65,.64,.98,1.52,.98,2.63,0,1.23-.35,2.16-1.06,2.83-.93,.89-2.15,1.01-3.21,1.01Zm-2.27-2.79h1.38c.26,0,.74,0,1.04-.27,.2-.17,.32-.46,.32-.76,0-.41-.22-.63-.31-.7-.3-.22-.81-.25-1.02-.25h-1.4v1.97Zm25.25,5.93h-3.5v-3.14h-.9l-.04-.05-3.65-4.66v4.7h-3.91v-11.36h3.91v4.2l3.53-4.2h4.9l-4.98,5.29,2.56,2.94h2.08v6.28Zm-89.69,20.16h-4.16v-16.87h6.1c1.36,0,3.1,.16,4.53,1.4,1.14,.98,1.7,2.33,1.7,4.13,0,1.65-.5,3-1.49,4-1.34,1.34-3.06,1.51-4.41,1.51h-2.27v5.83Zm0-9.22h1.28c.42,0,1.4,0,2.03-.59,.38-.37,.6-.94,.6-1.56s-.22-1.18-.6-1.53c-.56-.52-1.38-.59-2.11-.59h-1.2v4.27Zm14.58,9.59c-1.85,0-3.19-.53-4.34-1.73-1.12-1.17-1.69-2.6-1.69-4.25,0-1.79,.65-3.46,1.79-4.58,1.02-1,2.46-1.56,4.03-1.56,1.02,0,2.42,.25,3.44,1.4v-1.02h3.91v11.36h-3.91v-1.09c-.77,.97-1.86,1.47-3.24,1.47Zm.71-8.78c-.72,0-1.44,.28-1.92,.76-.37,.36-.8,.99-.8,1.93s.4,1.56,.73,1.91c.51,.52,1.28,.83,2.07,.83,.68,0,1.34-.27,1.82-.74,.39-.36,.85-1,.85-2.01,0-.77-.29-1.48-.8-1.95-.58-.55-1.39-.74-1.95-.74Zm22.05,11.54h-3.5v-3.14h-7.52v3.14h-3.5v-6.12h.11c.56-.07,1.06-.3,1.48-.68,.88-.79,.95-1.95,.95-3.27v-4.44h10.3v8.38h1.68v6.13Zm-9.46-6.13h3.87v-5.39h-2.78v2c0,1.12-.15,1.73-.26,2.08-.11,.33-.34,.81-.83,1.31Zm23.07,2.99h-3.91v-6.21l-4.65,6.21h-3.59v-11.36h3.91v6.12l4.65-6.12h3.59v11.36Zm7.92,.37c-2.02,0-3.86-.67-5.05-1.83-1.09-1.07-1.74-2.65-1.74-4.23s.65-3.16,1.74-4.23c1.19-1.16,3.03-1.83,5.05-1.83s3.86,.67,5.05,1.83c1.09,1.07,1.74,2.65,1.74,4.23s-.65,3.16-1.74,4.23c-1.19,1.16-3.03,1.83-5.05,1.83Zm0-8.82c-.79,0-1.46,.26-1.98,.76-.54,.53-.8,1.19-.8,2.01s.26,1.48,.8,2.01c.52,.51,1.19,.76,2,.76s1.43-.26,1.95-.76c.54-.53,.8-1.19,.8-2.01s-.26-1.48-.8-2.01c-.52-.51-1.18-.76-1.98-.76Zm14.27,8.82c-1.79,0-3.3-.57-4.49-1.7-.68-.65-1.82-2.07-1.82-4.33,0-1.73,.68-3.32,1.92-4.48,1.17-1.08,2.61-1.6,4.41-1.6,1.06,0,1.99,.2,2.93,.63l.07,.03v3.6l-.2-.16c-.67-.54-1.45-.82-2.31-.82-1.1,0-1.77,.53-2,.76-.52,.51-.8,1.22-.8,2.01,0,.74,.26,1.42,.73,1.91,.5,.54,1.3,.86,2.13,.86,.57,0,1.42-.15,2.26-.84l.2-.17v3.58l-.06,.03c-.89,.48-1.77,.69-2.96,.69Zm19.82-.37h-3.86v-11.36h3.86v11.36Zm-9.11,0h-6.18v-11.36h3.91v3.81h2.4c1.79,0,2.75,.68,3.16,1.08,.65,.64,.98,1.52,.98,2.63,0,1.23-.35,2.16-1.06,2.83-.93,.89-2.15,1.01-3.21,1.01Zm-2.27-2.79h1.38c.26,0,.74,0,1.04-.27,.2-.17,.32-.46,.32-.76,0-.41-.22-.63-.31-.7-.3-.22-.81-.25-1.02-.25h-1.4v1.97Z"/><path id="New_Symbol" class="cls-1" d="M80.24,45.16c-8.62,1-11.03,9.91-17.52,17.61-8.67,10.28-21.51,5-21.51,5,8.67-1.08,11.15-10.05,17.79-17.72,8.8-10.16,21.24-4.89,21.24-4.89Zm-31.23,15.08s10.78-8.54,6.13-21.12c-3.5-9.49-10.26-16.21-6.68-24.13,0,0-10.67,8.66-6.23,21.12,3.4,9.53,10.36,16.21,6.78,24.13Zm-.62-1.81s1.04-13.84-10.9-19.09c-9.31-4.1-19.1-3.72-22.45-11.73,0,0-1.33,13.75,11.34,19.08,9.38,3.94,18.66,3.74,22.01,11.75Zm-14.19,23.23h24.22l5.65-11.37h-29.87v11.37Zm3.86,33.34h2.04l13.89-31.81h-15.94v31.81Z"/></g></g></svg>